<?xml version="1.0" encoding="UTF-8"?>
<svg xmlns="http://www.w3.org/2000/svg" xmlns:xlink="http://www.w3.org/1999/xlink" width="30px" height="30px" viewBox="0 0 30 29" version="1.1">
<g id="surface1">
<path style=" stroke:none;fill-rule:nonzero;fill:rgb(0%,0%,0%);fill-opacity:1;" d="M 25.628906 0.75 C 25.128906 0.527344 24.535156 0.613281 24.125 0.972656 L 22.175781 2.640625 L 19.523438 0.347656 C 18.988281 -0.117188 18.183594 -0.117188 17.648438 0.347656 L 15 2.636719 L 12.347656 0.347656 C 11.816406 -0.117188 11.007812 -0.117188 10.476562 0.347656 L 7.824219 2.640625 L 5.871094 0.972656 C 5.296875 0.476562 4.414062 0.527344 3.902344 1.082031 C 3.671875 1.332031 3.546875 1.65625 3.550781 1.988281 L 3.550781 27.011719 C 3.546875 27.757812 4.167969 28.367188 4.9375 28.371094 C 5.285156 28.371094 5.617188 28.25 5.875 28.027344 L 7.824219 26.359375 L 10.476562 28.652344 C 11.011719 29.117188 11.816406 29.117188 12.351562 28.652344 L 15 26.363281 L 17.652344 28.652344 C 18.183594 29.113281 18.992188 29.113281 19.523438 28.652344 L 22.175781 26.359375 L 24.128906 28.027344 C 24.703125 28.523438 25.585938 28.472656 26.097656 27.917969 C 26.328125 27.667969 26.453125 27.34375 26.449219 27.011719 L 26.449219 1.988281 C 26.457031 1.453125 26.132812 0.96875 25.628906 0.75 Z M 23.105469 25.34375 C 22.570312 24.886719 21.769531 24.886719 21.238281 25.347656 L 18.585938 27.640625 L 15.9375 25.351562 C 15.402344 24.886719 14.597656 24.886719 14.0625 25.351562 L 11.414062 27.640625 L 8.757812 25.347656 C 8.230469 24.886719 7.429688 24.886719 6.898438 25.34375 L 4.953125 27.011719 L 4.953125 23.390625 L 4.949219 1.988281 L 6.894531 3.65625 C 7.429688 4.113281 8.230469 4.113281 8.761719 3.652344 L 11.414062 1.359375 L 14.0625 3.648438 C 14.597656 4.113281 15.402344 4.113281 15.9375 3.648438 L 18.585938 1.359375 L 21.242188 3.652344 C 21.769531 4.109375 22.570312 4.113281 23.101562 3.65625 L 25.046875 1.988281 L 25.046875 19.191406 L 25.050781 27.011719 Z M 23.105469 25.34375 "/>
<path style=" stroke:none;fill-rule:nonzero;fill:rgb(0%,0%,0%);fill-opacity:1;" d="M 21.660156 13.820312 L 8.339844 13.820312 C 7.953125 13.820312 7.636719 14.125 7.636719 14.5 C 7.636719 14.875 7.953125 15.179688 8.339844 15.179688 L 21.660156 15.179688 C 22.046875 15.179688 22.363281 14.875 22.363281 14.5 C 22.363281 14.125 22.046875 13.820312 21.660156 13.820312 Z M 21.660156 13.820312 "/>
<path style=" stroke:none;fill-rule:nonzero;fill:rgb(0%,0%,0%);fill-opacity:1;" d="M 15.335938 9.746094 L 8.339844 9.746094 C 7.953125 9.746094 7.636719 10.050781 7.636719 10.425781 C 7.636719 10.800781 7.953125 11.105469 8.339844 11.105469 L 15.335938 11.105469 C 15.726562 11.105469 16.039062 10.800781 16.039062 10.425781 C 16.039062 10.050781 15.722656 9.746094 15.335938 9.746094 Z M 15.335938 9.746094 "/>
<path style=" stroke:none;fill-rule:nonzero;fill:rgb(0%,0%,0%);fill-opacity:1;" d="M 21.660156 17.894531 L 8.339844 17.894531 C 7.953125 17.894531 7.636719 18.199219 7.636719 18.574219 C 7.636719 18.949219 7.953125 19.253906 8.339844 19.253906 L 21.660156 19.253906 C 22.046875 19.253906 22.363281 18.949219 22.363281 18.574219 C 22.363281 18.199219 22.046875 17.894531 21.660156 17.894531 Z M 21.660156 17.894531 "/>
</g>
</svg>
