<svg width="58" height="58" viewBox="0 0 58 58" fill="none" xmlns="http://www.w3.org/2000/svg">
<rect width="58" height="58" rx="12" fill="#FBF0F3"/>
<path d="M34.25 22C34.25 24.5815 31.9433 26.75 29 26.75C26.0567 26.75 23.75 24.5815 23.75 22C23.75 19.4185 26.0567 17.25 29 17.25C31.9433 17.25 34.25 19.4185 34.25 22Z" stroke="#CA6B6E" stroke-linecap="round"/>
<path d="M31.9812 19.2047C32.3999 18.5426 33.0288 18.0017 33.7943 17.6571C34.5599 17.3123 35.4234 17.1816 36.2741 17.2839C37.1247 17.3861 37.9181 17.7159 38.5551 18.226C39.1917 18.7357 39.6419 19.4009 39.8569 20.1335C40.0717 20.8654 40.0442 21.6384 39.777 22.3571C39.5095 23.0765 39.0116 23.7148 38.3384 24.1864C37.6648 24.6584 36.8483 24.9403 35.9918 24.9915C35.1353 25.0428 34.2837 24.8606 33.5456 24.4716" stroke="#CA6B6E"/>
<path d="M26.0188 19.2047C25.6001 18.5426 24.9712 18.0017 24.2057 17.6571C23.4401 17.3123 22.5766 17.1816 21.7259 17.2839C20.8753 17.3861 20.0819 17.7159 19.4449 18.226C18.8083 18.7357 18.3581 19.4009 18.1431 20.1335C17.9283 20.8654 17.9558 21.6384 18.223 22.3571C18.4905 23.0765 18.9884 23.7148 19.6616 24.1864C20.3352 24.6584 21.1517 24.9403 22.0082 24.9915C22.8647 25.0428 23.7163 24.8606 24.4544 24.4716" stroke="#CA6B6E"/>
<path d="M29 29.875C37.5363 29.875 39.1602 36.76 39.4691 39.3796C39.5338 39.9281 39.094 40.375 38.5417 40.375H19.4584C18.9061 40.375 18.4663 39.9281 18.531 39.3796C18.8399 36.76 20.4638 29.875 29 29.875Z" stroke="#CA6B6E" stroke-linecap="round"/>
<path d="M43.182 35.7779L43.6705 35.6711L43.6704 35.6711L43.182 35.7779ZM31.0836 30.0253L30.7301 29.6718L30.0306 30.3713L31.0086 30.5197L31.0836 30.0253ZM38.9309 36.875L38.4542 37.026L38.5648 37.375H38.9309V36.875ZM35.7084 28.625C38.1179 28.625 39.7203 29.8362 40.8037 31.3603C41.8984 32.9002 42.4429 34.7378 42.6935 35.8846L43.6704 35.6711C43.4077 34.4691 42.8268 32.4802 41.6188 30.7809C40.3995 29.0657 38.5217 27.625 35.7084 27.625V28.625ZM31.4372 30.3789C32.4626 29.3534 33.8374 28.625 35.7084 28.625V27.625C33.5418 27.625 31.9204 28.4814 30.7301 29.6718L31.4372 30.3789ZM31.0086 30.5197C35.6879 31.2297 37.6315 34.4296 38.4542 37.026L39.4075 36.724C38.5183 33.9177 36.351 30.3188 31.1586 29.531L31.0086 30.5197ZM42.2595 36.375H38.9309V37.375H42.2595V36.375ZM42.6935 35.8846C42.746 36.1249 42.5667 36.375 42.2595 36.375V37.375C43.143 37.375 43.8722 36.5942 43.6705 35.6711L42.6935 35.8846Z" fill="#CA6B6E"/>
<path d="M26.9164 30.0253L26.9914 30.5197L27.9694 30.3713L27.2699 29.6718L26.9164 30.0253ZM14.818 35.7779L15.3064 35.8846L14.818 35.7779ZM19.0691 36.875V37.375H19.4352L19.5458 37.026L19.0691 36.875ZM22.2916 28.625C24.1626 28.625 25.5374 29.3534 26.5628 30.3789L27.2699 29.6718C26.0796 28.4814 24.4582 27.625 22.2916 27.625V28.625ZM15.3064 35.8846C15.5571 34.7378 16.1015 32.9002 17.1963 31.3603C18.2797 29.8362 19.8821 28.625 22.2916 28.625V27.625C19.4783 27.625 17.6005 29.0657 16.3812 30.7809C15.1732 32.4802 14.5922 34.469 14.3295 35.6711L15.3064 35.8846ZM15.7405 36.375C15.4332 36.375 15.2539 36.1249 15.3064 35.8846L14.3295 35.6711C14.1278 36.5942 14.857 37.375 15.7405 37.375V36.375ZM19.0691 36.375H15.7405V37.375H19.0691V36.375ZM19.5458 37.026C20.3685 34.4296 22.3121 31.2297 26.9914 30.5197L26.8414 29.531C21.649 30.3188 19.4817 33.9177 18.5925 36.724L19.5458 37.026Z" fill="#CA6B6E"/>
</svg>
